<?xml version="1.0"?>
<svg width="1140.56" height="787.27" xmlns="http://www.w3.org/2000/svg" xmlns:svg="http://www.w3.org/2000/svg" data-name="Layer 1">
 <defs>
  <linearGradient id="c518dc33-18b9-48bc-b516-0f83ad79191e" x1="0.5" x2="0.5" y1="1" y2="0">
   <stop offset="0" stop-color="gray" stop-opacity="0.25"/>
   <stop offset="0.54" stop-color="gray" stop-opacity="0.12"/>
   <stop offset="1" stop-color="gray" stop-opacity="0.1"/>
  </linearGradient>
 </defs>
 <title>maker launch</title>
 <g class="layer">
  <title>Layer 1</title>
  <path d="m-287.52,458.82c20.16,-32.93 65.75,-27.19 98.08,-10s64.59,42.85 100.17,37.92c30,-4.16 54.6,-30.32 67.89,-60.5s17.19,-64.21 20.93,-97.54q7.05,-62.81 14.09,-125.7c1.72,-15.33 3.75,-31.51 12.37,-43.64c11.39,-16 32.27,-20.92 50.13,-16.11s33.09,17.71 46.12,32.1c41.74,46.08 65.39,108.37 101.88,159.65c7.43,10.44 15.82,20.76 26.92,25.8c16,7.25 34.37,2.12 50,-5.95c51,-26.29 85.26,-79.94 118.93,-130c16.38,-24.33 36.35,-50.35 63.6,-53c28.67,-2.85 53.56,21.58 70.41,47.45c54.08,83.24 65.67,196.88 131,269.48c8.11,9 17.06,17.32 27.37,22.91a70.65,70.65 0 0 0 10.6,4.65c57,19.73 76,98.93 33.84,145.89c-0.91,1 -1.84,2 -2.78,3c-6.26,6.61 -13.35,12.86 -21.81,14.83c-7.87,1.82 -16,-0.28 -23.8,-2.55c-49.86,-14.55 -99.12,-36.79 -150.67,-35.71c-50.16,1 -97.74,24.17 -147.34,32.51c-33.35,5.61 -67.28,4.49 -101,3.28q-168.46,-6.06 -336.85,-14.1c-55.72,-2.56 -111.46,-5 -167.17,-7.85c-42.92,-2.23 -70.26,-7.14 -75.24,-56.95c-4.36,-43.62 -43.52,-97.63 -17.67,-139.87z" fill="#b2ea79" id="svg_1" opacity="0.1"/>
  <ellipse cx="789.9" cy="749.54" fill="#ffd4aa" id="svg_2" rx="269.99" ry="37.73"/>
  <path d="m178.46,643.13s13.2,-3 21.85,5.87c0,0 -5.56,5 -18.64,-0.54l-3.21,-5.33z" fill="#2271ff" id="svg_3" transform="translate(-29.72 -56.36)"/>
  <path d="m177,643s-7.82,11.08 -2.86,22.45c0,0 6.76,-3.25 6.57,-17.45l-3.71,-5z" fill="#2271ff" id="svg_4" transform="translate(-29.72 -56.36)"/>
  <path d="m168.2,626.3s4.69,-10.15 27,2.12c0,0 -2.4,6.78 -11.88,6.88s-12.32,-4.01 -15.12,-9z" fill="#2271ff" id="svg_5" transform="translate(-29.72 -56.36)"/>
  <path d="m137.06,569.32s-11.17,-0.52 -10.54,24.92c0,0 7.13,1 11.58,-7.38s2.09,-12.71 -1.04,-17.54z" fill="#b2ea79" id="svg_6" transform="matrix(1 0 0 1 0 0)"/>
  <path d="m129.28,549.52s5,-17.68 28.47,-6.88c0,0 -4.1,16.19 -25.8,12.64l-2.67,-5.76z" fill="#f75151" id="svg_7"/>
  <path d="m120.57,524.18s10.58,-18.24 32.49,-3.44c0,0 -6.19,16.87 -30.29,9.55l-2.2,-6.11z" fill="#b2ea79" id="svg_8"/>
  <path d="m116.43,499.78s12.63,-16.95 34.36,-2.31c0,0 -12.06,14.94 -34.09,6.4l-0.27,-4.09z" fill="#b2ea79" id="svg_9" transform="matrix(1 0 0 1 0 0)"/>
  <path d="m112.69,476.06s12.76,-17.66 33.59,-3.15c0,0 -14.68,15.83 -33.33,7.07l-0.26,-3.92z" fill="#b2ea79" id="svg_10"/>
  <path d="m112.51,454.8s13.15,-22.53 32.65,-9.17c0,0 -14.42,19.57 -32.37,13.26l-0.28,-4.09z" fill="#b2ea79" id="svg_11"/>
  <path d="m114.28,429.82s14,-22.4 33.09,-7.18c0,0 -17.1,19.75 -32.87,11.15l-0.22,-3.97z" fill="#b2ea79" id="svg_12"/>
  <path d="m117.91,407.36s17,-21.31 33.55,-14.37c0,0 -17.68,22.6 -34,19.76l0.45,-5.39z" fill="#b2ea79" id="svg_13"/>
  <path d="m129.63,384.32s19.54,-26 32.37,-18.62c0,0 -14.31,20.09 -33.58,23.35l1.21,-4.73z" fill="#b2ea79" id="svg_14"/>
  <path d="m130.53,361.02s17.17,-21.32 31,-17.24c0,0 -14.45,21.89 -33.1,23.68l2.1,-6.44z" fill="#b2ea79" id="svg_15"/>
  <path d="m137.38,337.71s19.18,-20.6 28.31,-17.82c0,0 -13.35,22.36 -28.92,22.15l0.61,-4.33z" fill="#b2ea79" id="svg_16"/>
  <path d="m144.15,316.15s16.09,-24.15 25.82,-23c0,0 -9.31,21.19 -25.66,25.33l-0.16,-2.33z" fill="#b2ea79" id="svg_17"/>
  <path d="m151.14,287.24s14.39,-18.66 22.81,-19.18c0,0 -10.71,24.34 -23.07,25l0.26,-5.82z" fill="#b2ea79" id="svg_18"/>
  <path d="m155.14,268.03l12.58,-37.69s3,33.1 -14,44.62l1.42,-6.93z" fill="#b2ea79" id="svg_19"/>
  <path d="m158.53,227.17s0.44,-30.79 -1.33,-33.17c0,0 12.47,24.74 2.14,46.71l-0.81,-13.54z" fill="#b2ea79" id="svg_20"/>
  <path d="m128.64,549.15s-16.26,-8.62 -24.77,15.73c0,0 14.5,8.28 27,-9.81l-2.23,-5.92z" fill="#b2ea79" id="svg_21" transform="matrix(1 0 0 1 0 0)"/>
  <path d="m120,523.23s-19.72,-7.45 -27.35,17.88c0,0 15.47,9.15 29.51,-11.76l-2.16,-6.12z" fill="#b2ea79" id="svg_22" transform="matrix(1 0 0 1 0 0)"/>
  <path d="m115.64,501.31s-14.79,-15.11 -34.36,2.33c0,0 13.94,13.19 34.63,1.79l-0.27,-4.12z" fill="#b2ea79" id="svg_23"/>
  <path d="m112.22,476.1s-15,-15.81 -33.71,1.36c0,0 16.66,13.73 34,2.55l-0.29,-3.91z" fill="#b2ea79" id="svg_24"/>
  <path d="m112.55,455.4s-11.36,-23.47 -31.83,-11.67c0,0 12.86,20.63 31.24,15.74l0.59,-4.07z" fill="#b2ea79" id="svg_25"/>
  <path d="m115.45,429.64s-11.33,-23.9 -32.06,-11.07c0,0 14.66,21.61 31.34,14.93l0.72,-3.86z" fill="#b2ea79" id="svg_26"/>
  <path d="m119.98,407.34s-5.64,-26.65 -23.55,-27.87c0,0 5.68,28.13 21.51,32.88l2.04,-5.01z" fill="#b2ea79" id="svg_27"/>
  <path d="m123.37,385.98s-3.67,-32.31 -18.46,-32.46c0,0 2.15,24.57 17.11,37.15l1.35,-4.69z" fill="#b2ea79" id="svg_28"/>
  <path d="m132,359.99s-6.21,-26.66 -20.47,-29c0,0 3.5,26 19.53,35.72l0.94,-6.72z" fill="#b2ea79" id="svg_29"/>
  <path d="m139.06,337.79s-2,-28.07 -10.9,-31.62c0,0 -3.61,25.78 8.65,35.38l2.25,-3.76z" fill="#b2ea79" id="svg_30"/>
  <path d="m144.79,315.8s-3.15,-28.85 -12.31,-32.32c0,0 -1.5,23.09 11.1,34.3l1.21,-1.98z" fill="#b2ea79" id="svg_31"/>
  <path d="m152.54,289.46s-1.64,-23.51 -8.35,-28.61c0,0 -4.58,26.19 5.35,33.56l3,-4.95z" fill="#b2ea79" id="svg_32"/>
  <path d="m154.28,266.92l-8.8,-38.74s-6.23,32.64 9.57,45.78l-0.77,-7.04z" fill="#b2ea79" id="svg_33"/>
  <path d="m152.91,227.92s-17.63,-25.28 -17.49,-28.22c0,0 3.54,27.48 24.41,39.89l-6.92,-11.67z" fill="#b2ea79" id="svg_34"/>
  <path d="m154.28,220.03s-17.46,-36.39 -24.43,-39c0,0 22.09,9.43 25.61,37.8l-1.18,1.2z" fill="#b2ea79" id="svg_35"/>
  <path d="m150.82,293.25l-1,-0.25c9.85,-42 11.24,-68.48 3.9,-74.56l0.68,-0.82c7.74,6.44 6.52,32.6 -3.58,75.63z" fill="#b2ea79" id="svg_36"/>
  <path d="m122.54,391.91l-1.55,-0.43c1.09,-3.86 2.27,-7.79 3.53,-11.66c11,-33.72 20.14,-65 25.75,-88.94l1.27,-0.75c-5.62,24 -14.51,56.43 -25.49,90.18c-1.25,3.86 -2.43,7.76 -3.51,11.6z" fill="#b2ea79" id="svg_37"/>
  <path d="m169.59,616.31c-0.22,-0.21 -22.22,-21.87 -39.12,-60.24a232.37,232.37 0 0 1 -18.61,-70.77c-3,-30.53 1.1,-65.13 10,-96.9l1.28,1.32c-20,71.31 -6.19,130.34 9.23,165.4c16.73,38 38.48,59.45 38.7,59.66l-1.48,1.53z" fill="#b2ea79" id="svg_38"/>
  <path d="m223.53,558.46s8,-1.83 13.22,3.55c0,0 -3.37,3 -11.27,-0.33l-1.95,-3.22z" fill="#2271ff" id="svg_39" transform="translate(-29.72 -56.36)"/>
  <path d="m222.66,558.39s-4.72,6.7 -1.72,13.57c0,0 4.08,-2 4,-10.55l-2.28,-3.02z" fill="#2271ff" id="svg_40" transform="translate(-29.72 -56.36)"/>
  <path d="m217.34,548.28s2.83,-6.13 16.3,1.29c0,0 -1.45,4.09 -7.18,4.15s-7.41,-2.42 -9.12,-5.44z" fill="#2271ff" id="svg_41" transform="translate(-29.72 -56.36)"/>
  <path d="m186.76,491.55s-6.76,-0.31 -6.38,15.06c0,0 4.31,0.6 7,-4.46s1.27,-7.68 -0.62,-10.6z" fill="#b2ea79" id="svg_42"/>
  <path d="m182.03,479.58s3.07,-10.69 17.23,-4.18c0,0 -2.47,9.79 -15.59,7.64l-1.64,-3.46z" fill="#b2ea79" id="svg_43"/>
  <path d="m176.79,464.26s6.39,-11 19.64,-2.08c0,0 -3.75,10.2 -18.31,5.77l-1.33,-3.69z" fill="#b2ea79" id="svg_44"/>
  <path d="m174.28,449.51s7.64,-10.25 20.77,-1.4c0,0 -7.28,9 -20.6,3.87l-0.17,-2.47z" fill="#b2ea79" id="svg_45"/>
  <path d="m172.02,435.17s7.72,-10.68 20.31,-1.9c0,0 -8.87,9.57 -20.15,4.27l-0.16,-2.37z" fill="#b2ea79" id="svg_46"/>
  <path d="m171.92,422.31s8,-13.61 19.73,-5.54c0,0 -8.72,11.83 -19.57,8l-0.16,-2.46z" fill="#b2ea79" id="svg_47"/>
  <path d="m172.96,407.22s8.49,-13.55 20,-4.38c0,0 -10.34,11.94 -19.88,6.74l-0.12,-2.36z" fill="#b2ea79" id="svg_48"/>
  <path d="m175.18,393.64s10.27,-12.88 20.28,-8.68c0,0 -10.69,13.66 -20.53,11.94l0.25,-3.26z" fill="#b2ea79" id="svg_49"/>
  <path d="m178.2,380.7s11.81,-15.71 19.57,-11.26c0,0 -8.65,12.15 -20.3,14.12l0.73,-2.86z" fill="#b2ea79" id="svg_50"/>
  <path d="m182.81,365.64s10.38,-12.89 18.76,-10.42c0,0 -8.73,13.23 -20,14.31l1.24,-3.89z" fill="#b2ea79" id="svg_51"/>
  <path d="m186.95,351.53s11.59,-12.45 17.11,-10.77c0,0 -8.06,13.51 -17.48,13.39l0.37,-2.62z" fill="#b2ea79" id="svg_52"/>
  <path d="m191.04,338.5s9.73,-14.6 15.61,-13.92c0,0 -5.62,12.81 -15.51,15.32l-0.1,-1.4z" fill="#b2ea79" id="svg_53"/>
  <path d="m195.28,321.02s8.7,-11.28 13.79,-11.6c0,0 -6.48,14.72 -13.95,15.09l0.16,-3.49z" fill="#b2ea79" id="svg_54"/>
  <path d="m197.69,309.4l7.59,-22.76s1.8,20 -8.49,27l0.9,-4.24z" fill="#b2ea79" id="svg_55"/>
  <path d="m199.74,284.7s0.26,-18.61 -0.81,-20.05c0,0 7.54,14.95 1.29,28.24l-0.48,-8.19z" fill="#b2ea79" id="svg_56"/>
  <path d="m181.66,479.36s-9.82,-5.22 -15,9.5c0,0 8.77,5 16.33,-5.92l-1.33,-3.58z" fill="#b2ea79" id="svg_57"/>
  <path d="m176.45,463.64s-11.93,-4.5 -16.54,10.81c0,0 9.35,5.53 17.84,-7.1l-1.3,-3.71z" fill="#b2ea79" id="svg_58"/>
  <path d="m173.8,450.43s-8.93,-9.13 -20.77,1.4c0,0 8.43,8 20.94,1.08l-0.17,-2.48z" fill="#b2ea79" id="svg_59"/>
  <path d="m171.74,435.19s-9.07,-9.55 -20.38,0.83c0,0 10.07,8.29 20.54,1.54l-0.16,-2.37z" fill="#b2ea79" id="svg_60"/>
  <path d="m171.94,422.64s-6.87,-14.19 -19.25,-7.06c0,0 7.78,12.47 18.89,9.52l0.36,-2.46z" fill="#b2ea79" id="svg_61"/>
  <path d="m173.69,407.09s-6.85,-14.45 -19.41,-6.69c0,0 8.86,13.07 18.95,9l0.46,-2.31z" fill="#b2ea79" id="svg_62"/>
  <path d="m176.43,393.64s-3.41,-16.12 -14.24,-16.85c0,0 3.43,17 13,19.87l1.24,-3.02z" fill="#b2ea79" id="svg_63"/>
  <path d="m178.48,380.71s-2.2,-19.53 -11.2,-19.63c0,0 1.3,14.86 10.34,22.47l0.86,-2.84z" fill="#b2ea79" id="svg_64"/>
  <path d="m183.69,365s-3.75,-16.12 -12.37,-17.54c0,0 2.12,15.71 11.81,21.59l0.56,-4.05z" fill="#b2ea79" id="svg_65"/>
  <path d="m187.96,351.58s-1.23,-17 -6.58,-19.12c0,0 -2.19,15.59 5.22,21.39l1.36,-2.27z" fill="#b2ea79" id="svg_66"/>
  <path d="m191.43,338.28s-1.9,-17.44 -7.44,-19.54c0,0 -0.91,14 6.71,20.74l0.73,-1.2z" fill="#b2ea79" id="svg_67"/>
  <path d="m196.11,322.36s-1,-14.21 -5,-17.3c0,0 -2.77,15.84 3.23,20.29l1.77,-2.99z" fill="#b2ea79" id="svg_68"/>
  <path d="m197.19,308.73l-5.32,-23.42s-3.77,19.74 5.78,27.68l-0.46,-4.26z" fill="#b2ea79" id="svg_69"/>
  <path d="m196.34,285.16s-10.65,-15.27 -10.57,-17.06c0,0 2.13,16.61 14.75,24.11l-4.18,-7.05z" fill="#b2ea79" id="svg_70"/>
  <path d="m197.14,280.38s-10.56,-22 -14.77,-23.55c0,0 13.36,5.7 15.48,22.86l-0.71,0.69z" fill="#b2ea79" id="svg_71"/>
  <path d="m195.07,324.64l-0.63,-0.15c6,-25.39 6.8,-41.4 2.36,-45.07l0.41,-0.5c4.71,3.9 3.97,19.72 -2.14,45.72z" fill="#b2ea79" id="svg_72"/>
  <path d="m177.98,384.3l-0.94,-0.27c0.66,-2.33 1.38,-4.7 2.14,-7c6.63,-20.39 12.17,-39.3 15.56,-53.77l0.77,-0.46c-3.4,14.5 -8.77,34.12 -15.41,54.53c-0.76,2.31 -1.47,4.64 -2.12,6.97z" fill="#b2ea79" id="svg_73"/>
  <path d="m206.42,519.96c-0.13,-0.13 -13.43,-13.22 -23.65,-36.42a140.72,140.72 0 0 1 -11.25,-42.78c-1.83,-18.46 0.67,-39.38 6.06,-58.59l0.77,0.8c-12.09,43.11 -3.74,78.8 5.58,100c10.12,23 23.26,35.93 23.4,36.06l-0.91,0.93z" fill="#b2ea79" id="svg_74"/>
  <path d="m236.5,568.96a38.24,38.24 0 0 0 -7.5,2.14c-53.94,21.54 -53.04,162.54 -53.04,162.54l-15.88,0s-5,-60.51 -26.79,-146.84c-19.63,-77.67 60.88,-147.28 77.23,-160.48c1.84,-1.47 2.86,-2.25 2.86,-2.25c81.09,29.8 23.12,144.89 23.12,144.89z" fill="#d31b1b" id="svg_75" transform="matrix(1 0 0 1 0 0)"/>
  <path d="m219.28,427.52c-1.87,-0.86 -3.8,-1.68 -5.85,-2.43c0,0 -1,0.78 -2.86,2.25c-16.35,13.2 -96.86,82.81 -77.23,160.48c21.79,86.33 26.74,146.82 26.74,146.82l8.93,0s-4.95,-60.51 -26.79,-146.84c-19.55,-77.31 60.18,-146.66 77.06,-160.28z" fill="#b2ea79" id="svg_76" opacity="0.2"/>
  <path d="m504.04,587.82c-21.84,86.33 -26.76,146.82 -26.76,146.82l-15.91,0s1,-147.36 -56.73,-163.81a31.53,31.53 0 0 0 -3.81,-0.89s-58,-115.09 23.12,-144.87c0,0 0.82,0.61 2.3,1.8c15.03,12.03 97.64,82.38 77.79,160.95z" fill="#d31b1b" id="svg_77" transform="matrix(1 0 0 1 0 0)"/>
  <path d="m266.22,626.32a38.24,38.24 0 0 0 -7.5,2.14a979.21,979.21 0 0 1 -18.48,-144.76c1.84,-1.47 2.86,-2.25 2.86,-2.25c81.09,29.78 23.12,144.87 23.12,144.87z" id="svg_78" opacity="0.1" transform="translate(-29.72 -56.36)"/>
  <path d="m456,483.25a901,901 0 0 1 -21.61,144a31.53,31.53 0 0 0 -3.81,-0.89s-58,-115.09 23.12,-144.87c-0.03,-0.04 0.79,0.57 2.3,1.76z" id="svg_79" opacity="0.1" transform="translate(-29.72 -56.36)"/>
  <path d="m396.59,591.78q-8.4,33.14 -19.69,68s-35.72,37.21 -122,0c0,0 -8.62,-24.3 -18.1,-65.61c-20.87,-90.83 -45.9,-263.92 7.43,-441.71a661.75,661.75 0 0 1 67.18,-152.46s45.56,52.31 79,152.43s54.72,248.07 6.18,439.35z" fill="#f4e1ea" id="svg_80" transform="matrix(1 0 0 1 0 0)"/>
  <circle cx="318.66" cy="293.6" fill="#f75151" id="svg_81" r="71.63" transform="matrix(1 0 0 1 0 0)"/>
  <path d="m369.46,293.64a50.8,50.8 0 0 1 -83,39.29a51.33,51.33 0 0 1 -9.52,-10.33a50,50 0 0 1 -3.28,-5.39a50.7,50.7 0 0 1 -5.79,-23.57c0,-0.41 0,-0.81 0,-1.21a50.86,50.86 0 0 1 37,-47.72a52.53,52.53 0 0 1 12.24,-1.86l1.52,0a50.8,50.8 0 0 1 50.83,50.79z" fill="#ffaaaa" id="svg_82" transform="matrix(1 0 0 1 0 0)"/>
  <path d="m390.4,152.43c-81.27,38.91 -146.22,0 -146.22,0a661.75,661.75 0 0 1 67.23,-152.43s45.56,52.31 78.99,152.43z" fill="#f75151" id="svg_83"/>
  <path d="m396.59,591.78q-5.7,22.44 -12.7,45.65q-3.32,11.07 -7,22.32s-35.72,37.21 -122,0c0,0 -2.8,-7.89 -7,-22.32c-3.14,-10.9 -7.05,-25.51 -11.13,-43.29c0,0 32.12,13.71 77.71,13.71a214.11,214.11 0 0 0 82.12,-16.07z" fill="#f75151" id="svg_84" transform="matrix(1 0 0 1 0 0)"/>
  <path d="m413.61,693.79q-3.32,11.07 -7,22.32s-35.72,37.21 -122,0c0,0 -2.8,-7.89 -7,-22.32c-0.01,0 87.93,25.3 136,0z" fill="#e3e8f4" id="svg_85" transform="translate(-29.72 -56.36)"/>
  <path d="m334.62,301l-0.11,0.08l-36.9,47.64c0,0.4 0,0.8 0,1.21a50.7,50.7 0 0 0 5.79,23.57l43.48,-74.36l-12.26,1.86z" fill="#fff" id="svg_86" opacity="0.2" transform="translate(-29.72 -56.36)"/>
  <path d="m316.68,287.64l-30.22,45.25a51.33,51.33 0 0 1 -9.52,-10.33l36,-38.64l3.74,3.72z" fill="#fff" id="svg_87" opacity="0.2" transform="matrix(1 0 0 1 0 0)"/>
  <path d="m303.92,716.12s-8.62,-24.31 -18.1,-65.61c-20.87,-90.84 -45.9,-263.93 7.43,-441.72a664.18,664.18 0 0 1 58.85,-138.09c-6.77,-9.49 -11,-14.33 -11,-14.33a661.68,661.68 0 0 0 -67.2,152.42c-53.33,177.79 -28.3,350.88 -7.43,441.72c9.48,41.3 18.1,65.61 18.1,65.61c34.09,14.69 60.28,17.77 79.5,16.13c-16.42,-1.25 -36.36,-5.88 -60.15,-16.13z" fill="#fff" id="svg_88" opacity="0.2" transform="translate(-29.72 -56.36)"/>
  <path d="m936.98,728.93s46.74,-58.16 43.64,-116.41a113.05,113.05 0 0 1 18.54,-69.06a190.19,190.19 0 0 1 22,-27" fill="none" id="svg_89" stroke="#535461" stroke-miterlimit="10" stroke-width="2"/>
  <path d="m1019.39,479.78c-3.34,8.11 1.66,37.68 1.66,37.68s24.37,-17.48 27.71,-25.59a15.88,15.88 0 0 0 -29.37,-12.09z" fill="#ffaaaa" id="svg_90" transform="matrix(1 0 0 1 0 0)"/>
  <path d="m976.61,514.72c1.61,8.62 21.88,30.72 21.88,30.72s11,-27.91 9.35,-36.54a15.88,15.88 0 0 0 -31.23,5.82z" fill="#ffaaaa" id="svg_91" transform="matrix(1 0 0 1 0 0)"/>
  <path d="m936.12,655.57c4.53,7.51 31.28,21.07 31.28,21.07s0.44,-30 -4.09,-37.5a15.88,15.88 0 1 0 -27.19,16.43z" fill="#2271ff" id="svg_93"/>
  <path d="m1028.68,559.71c-8.14,3.25 -37.66,-2.05 -37.66,-2.05s17.72,-24.19 25.87,-27.45a15.88,15.88 0 0 1 11.79,29.5z" fill="#ffaaaa" id="svg_94" transform="matrix(1 0 0 1 0 0)"/>
  <path d="m1019.39,480.78c-3.34,8.11 1.66,37.68 1.66,37.68s24.37,-17.48 27.71,-25.59a15.88,15.88 0 0 0 -29.37,-12.09z" fill="#7f007f" id="svg_97" opacity="0.25" transform="matrix(1 0 0 1 0 0)"/>
  <path d="m975.61,513.72c1.61,8.62 21.88,30.72 21.88,30.72s11,-27.91 9.35,-36.54a15.88,15.88 0 0 0 -31.23,5.82z" fill="#ffaad4" id="svg_98" opacity="0.25"/>
  <path d="m936.12,655.57c4.53,7.51 31.28,21.07 31.28,21.07s0.44,-30 -4.09,-37.5a15.88,15.88 0 1 0 -27.19,16.43z" id="svg_100" opacity="0.25"/>
  <path d="m1029.68,558.71c-8.14,3.25 -37.66,-2.05 -37.66,-2.05s17.72,-24.19 25.87,-27.45a15.88,15.88 0 0 1 11.79,29.5z" fill="#7f003f" id="svg_101" opacity="0.25"/>
  <path d="m937.4,726.5s66.3,-34.24 87.07,-88.74a113,113 0 0 1 44.94,-55.63a189.91,189.91 0 0 1 31,-15.76" fill="none" id="svg_104" stroke="#535461" stroke-miterlimit="10" stroke-width="2"/>
  <path d="m1113.7,532.1c-6.34,6.07 -13.75,35.13 -13.75,35.13s29.36,-6.11 35.7,-12.17a15.88,15.88 0 0 0 -21.95,-23l0,0.04z" fill="#ffaaaa" id="svg_105" transform="matrix(1 0 0 1 0 0)"/>
  <path d="m1060.44,546.71c-2,8.54 7.55,37 7.55,37s21.29,-21.07 23.35,-29.66a15.88,15.88 0 0 0 -30.9,-7.34z" fill="#ffaaaa" id="svg_106" transform="matrix(1 0 0 1 0 0)"/>
  <path d="m1088.81,607.94c-8.77,-0.32 -33.6,-17.13 -33.6,-17.13s26,-14.93 34.77,-14.61a15.88,15.88 0 1 1 -1.17,31.74z" fill="#ffaaaa" id="svg_109" transform="matrix(1 0 0 1 0 0)"/>
  <path d="m1048.39,707.72l-51.39,-74.53s-1,-18.45 -4.32,-22.76s-0.72,-13.9 -0.72,-13.9s3.6,-5.27 0.48,-5.75s-0.48,-12.23 -0.48,-12.23l-0.24,-18.69s2.88,-18 0.48,-22.28a7.07,7.07 0 0 1 0.24,-7.67s2.88,-10.31 0,-12.94s-2.16,-18.7 -1.44,-31.4s-5.05,-19.89 -5.05,-21.81s-19,-20.61 -19,-22.28s-12,-8.63 -19.21,-10.55s-10.81,-3.35 -10.57,-4.31s-11.29,-4.79 -11.29,-4.79s-10.09,-0.72 -13.94,-5.76s-15.59,-6.48 -15.93,-6.53c-0.07,-0.33 -0.15,-0.67 -0.22,-1s-0.15,-0.72 -0.22,-1.08c0.91,-1.53 1.75,-3.09 2.51,-4.7c0.23,-0.49 0.45,-1 0.66,-1.46c4.21,-0.19 8.53,-1.09 11.83,-3.67a16.11,16.11 0 0 0 5.75,-11.49a25.19,25.19 0 0 0 -2.81,-12.77c-2.1,-4.32 -5.19,-8.79 -4.13,-13.47c0.47,-2 1.68,-3.8 2.3,-5.78c1.17,-3.75 0.09,-7.87 -1.73,-11.35s-4.35,-6.54 -6.37,-9.91a38.7,38.7 0 0 1 -5.07,-14c-0.41,-2.6 -0.57,-5.34 -1.88,-7.63a14.21,14.21 0 0 0 -4.21,-4.25a42.07,42.07 0 0 0 -25.82,-7.83c-6.54,0.23 -13.06,2 -19.55,1.19c-3.91,-0.48 -7.64,-1.87 -11.42,-3c-8.06,-2.38 -17.35,-3.36 -24.37,1.25s-9.81,13.68 -14.56,20.77c-4.2,6.28 -10.36,11.54 -13.56,18.18c0,-0.12 0.06,-0.25 0.1,-0.38a21.75,21.75 0 0 0 -1.79,4.84c-1.22,5.22 -0.2,10.68 1.07,15.89c0.65,2.69 1.55,5.61 3.88,7.1s5.63,1.16 8.39,1.65c-0.1,0.45 -0.22,0.91 -0.32,1.37a54.9,54.9 0 0 0 38.09,64c0,0.49 0,1 0,1.46a36.33,36.33 0 0 1 -0.25,4.12l0,0s-24.15,-5 -30.64,-1.6s-19.22,6 -21.14,7.9s-6.72,0.48 -11,11.75s-4.8,22.76 -10.33,28s-8.4,8.87 -8.64,12.71s0.72,4.79 -1.45,6s-5.28,6.23 -4.32,8.15c0,0 1.2,4.79 -2.64,7.18s-3.37,7.19 -3.37,7.19s-1.44,5.28 -4.8,6.47s-5.53,9.11 -5.53,9.11l-10.93,12.55l-21.59,-23.9a9.1,9.1 0 0 0 -12.85,-0.66l-10.6,9.56a20.94,20.94 0 0 0 -10.61,6.32a27.35,27.35 0 0 0 -5.49,8.18l-5.81,5.22a14.75,14.75 0 0 0 -1.49,16.28l13.83,15.29l0.09,0.13c-5.23,0.66 -9.85,2.34 -13.38,5.45c-20.65,18.21 -20.9,35 -17.77,42.65s29.3,37.15 29.3,37.15s15.21,19.77 37.17,30.29l0,0l-0.17,0.17c-0.43,0.46 -0.86,1 -1.28,1.5l-0.36,0.46l-0.33,0.46l-0.39,0.58c-0.11,0.15 -0.21,0.31 -0.31,0.47s-0.28,0.45 -0.41,0.69l-0.27,0.46c-0.16,0.3 -0.33,0.61 -0.49,0.93l-0.16,0.31c-0.2,0.42 -0.4,0.85 -0.59,1.3c-0.07,0.16 -0.13,0.33 -0.2,0.49c-0.12,0.31 -0.25,0.63 -0.37,1s-0.15,0.41 -0.22,0.62s-0.21,0.62 -0.31,0.94s-0.14,0.45 -0.2,0.67s-0.2,0.7 -0.29,1.06s-0.11,0.42 -0.17,0.65c-0.13,0.55 -0.26,1.12 -0.37,1.72c0,0.22 -0.08,0.45 -0.12,0.68q-0.12,0.6 -0.21,1.23c-0.05,0.29 -0.08,0.58 -0.12,0.87s-0.1,0.79 -0.15,1.19l-0.09,0.92c0,0.44 -0.08,0.9 -0.11,1.36c0,0.28 0,0.56 -0.05,0.84c0,0.76 -0.08,1.52 -0.09,2.32c-0.48,28 1.16,32.11 1.16,32.11s3.39,8.93 12.75,9.57a16.3,16.3 0 0 0 4.11,-0.22c12.49,-2.16 41.79,-7.19 52.12,-5.27c6.21,1.15 17.71,-0.55 25.9,-2.1l2.15,-0.41l1.5,4.76l4.75,-1.3l4,2.33l2.55,1.46c4.74,16.08 24,10.6 24,10.6l4.52,2.62l46.36,1.2s10,6 16.41,7.88a15.24,15.24 0 0 0 2.33,0.51a105.21,105.21 0 0 0 12.92,0.24c3.55,-0.09 6.3,-0.24 6.3,-0.24s-0.47,-12.59 -1.15,-26.68c17.72,-0.74 33.43,-1.85 42.94,-3.52c24.76,-4.35 35.09,-26.86 38.89,-38.89a113.19,113.19 0 0 1 2.43,14.93a106.74,106.74 0 0 0 3.85,12.94a43.73,43.73 0 0 0 5.28,9.58c18.26,-6.23 7.21,-15.57 3.36,-19.65s2.65,-7.43 2.65,-7.43s5,-3.35 4.56,-6.47s-0.72,-6.47 15.61,-6.23s15.65,-13.45 15.65,-13.45zm-253.66,-153c0.21,1.37 2.49,16.14 4.55,20c0.43,0.82 0.6,3.73 0.54,7.89c-9.68,-0.77 -19.76,-1.18 -19.76,-1.18a2.32,2.32 0 0 1 0.52,1.23l-1.52,-0.34l-2.21,-0.54l17.83,-27.12l0.05,0.06zm-35.32,56.2l16.75,2.66l1.41,0.22a55.11,55.11 0 0 0 -0.87,7.91c0,0.25 0.38,0.55 0.92,0.9a21.57,21.57 0 0 0 -0.33,4c0.27,1.33 8.1,4.19 17.08,6.57c-0.12,0.48 -0.24,0.94 -0.36,1.37l0,0c-7.93,-4.17 -20.43,-6.12 -21.87,-9.22s-44,-18 -44,-18s-1.55,-0.82 -4.23,-2.12l11.2,2.12l3.08,-0.31a167.91,167.91 0 0 0 21.22,3.88l0,0.02z" fill="url(#c518dc33-18b9-48bc-b516-0f83ad79191e)" id="svg_112" transform="matrix(1 0 0 1 0 0)"/>
  <path d="m994.99,715.79s-6.66,40.23 -40.47,46.18s-146.66,4.76 -146.66,4.76s-64.52,-9.28 -87.85,-63.8s-38.33,-76.19 -18.33,-77.14s127.85,36.43 134,36.9s165.26,-82.85 159.31,53.1z" fill="#484849" id="svg_113" transform="matrix(1 0 0 1 0 0)"/>
  <path d="m959.99,688.79s-6.66,40.23 -40.47,46.18s-146.66,4.76 -146.66,4.76s-64.52,-9.28 -87.85,-63.8s-38.33,-76.19 -18.33,-77.14s127.85,36.43 134,36.9s165.26,-82.85 159.31,53.1z" fill="#484849" id="svg_114" opacity="0.05"/>
  <path d="m681.35,761.54s3.37,8.88 12.64,9.51a16.43,16.43 0 0 0 4.07,-0.22c12.38,-2.14 41.43,-7.14 51.66,-5.24c6.16,1.15 17.55,-0.55 25.66,-2.08c5.4,-1 9.34,-2 9.34,-2s-9.52,-31.66 -10.72,-32.61s-42.85,-25.95 -42.85,-25.95l-33,-2.37l-0.1,0s-6.11,0.41 -11.18,6.57c-3.49,4.21 -6.48,11.13 -6.68,22.47c-0.46,27.87 1.16,31.92 1.16,31.92z" fill="#afafaf" id="svg_115" transform="matrix(1 0 0 1 0 0)"/>
  <path d="m704.07,805.9s3.37,8.88 12.64,9.51a135.54,135.54 0 0 1 -9,-13.08l0.17,-23.09c-1.47,-17.29 6.62,-28.36 13,-34.27l-0.1,0s-17.38,1.18 -17.86,29s1.15,31.93 1.15,31.93z" id="svg_116" opacity="0.05" transform="translate(-29.72 -56.36)"/>
  <path d="m847.2,755.43l30.71,-24l48.33,-47.62s-5.22,-0.25 -13.09,-0.59c-2,1.25 -7.45,5.18 -7.65,10c-0.24,5.82 -13.07,0.4 -19.73,3.73s-39.28,45.08 -45,44.81s-10.23,-2.9 -12.62,1.15c0,0.09 -0.11,0.17 -0.17,0.26l19.22,12.26z" id="svg_117" opacity="0.1" transform="translate(-29.72 -56.36)"/>
  <path d="m709.6,751.53c1.09,0.53 2.19,1 3.32,1.52c23.34,10 52.14,31 54.29,34.76c1.3,2.32 18,12.46 30.89,20.06c5.4,-1 9.34,-2 9.34,-2s-9.52,-31.66 -10.72,-32.61s-42.85,-25.95 -42.85,-25.95l-33,-2.37l-0.1,0s-6.1,0.43 -11.17,6.59z" id="svg_118" opacity="0.1" transform="translate(-29.72 -56.36)"/>
  <path d="m634.84,640.29c3.09,7.62 29,36.91 29,36.91s16.42,21.42 39.76,31.42s52.14,31 54.28,34.76c1.38,2.45 20,13.65 33.08,21.35l2.93,1.71l6.5,3.77l3.44,2s8,-6.4 15.91,-12.84s15.63,-12.75 15.76,-13.11c0.23,-0.71 3.32,-8.81 2.61,-9.28c-0.37,-0.25 -2,-3.55 -5,-7.37a33.82,33.82 0 0 0 -12.13,-10c-11,-5 -15.71,-16.38 -15.71,-16.38s-1,-0.76 -2.63,-1.76c-2.82,-1.78 -7.35,-4.34 -10.7,-4.77c-5.25,-0.66 -15,-11.37 -15,-11.37s-6.67,-4.29 -9.29,-9.76c-2.5,-5.22 -39.42,-30.58 -42.84,-32.92l89.51,57.48l21.42,13.77l30.71,-24l48.34,-47.62s-6.5,-0.32 -16,-0.72c-23.49,-1 -65.21,-2.61 -70.48,-1.42a40.17,40.17 0 0 1 -13.1,0.85s-11.88,0.54 -19.74,-3.61s-20.25,-6.09 -21.68,-9.16s-43.57,-17.85 -43.57,-17.85s-57.37,-30.47 -77.85,-12.37s-20.63,34.68 -17.53,42.29z" fill="#484849" id="svg_119" transform="matrix(1 0 0 1 0 0)"/>
  <path d="m800.1,451.19l7.38,24.52l9.52,55.23l35,2.38l10.13,-16.8l10.15,-16.77s6.3,-22.32 10.83,-43.91c4,-19.1 6.62,-37.64 2.26,-39.65c-3.86,-1.79 -6.4,-8.22 -8,-15.14c-0.21,-0.85 -0.4,-1.72 -0.58,-2.59a134.62,134.62 0 0 1 -2.32,-17.75s-73.33,-3.8 -63.09,26.43a48.18,48.18 0 0 1 2.76,16.08a38.23,38.23 0 0 1 -0.25,4.09a34.3,34.3 0 0 1 -13.79,23.88z" fill="#f4cdcd" id="svg_120" transform="matrix(1 0 0 1 0 0)"/>
  <path d="m814.58,504.5l2.62,41.66l5.95,35.47l6.67,16.43l5.95,89.88s57.41,6.64 71.37,-0.12a6.14,6.14 0 0 0 2.53,-2c16.86,-25.43 11.33,-99.19 11.33,-99.19l6.43,-47.63l-4.29,-24.72l-10.35,-1.1l-8,-0.85s-1.8,2.22 -4.4,5.65c-7.06,9.32 -20,27.65 -19.17,35.3c1.18,10.48 -1.43,21.19 -5.48,22.86s-7.38,4.52 -8.09,1.67s-1.43,-3.57 -0.72,-7.62s-3.1,-16.43 -3.1,-16.43s-6.42,-14.52 -6,-20.71s-0.71,-13.34 -2.62,-15s-4.52,-3.34 -2.38,-11s-9.39,-22.45 -9.39,-22.45l-28.86,19.9z" fill="#e3e8f4" id="svg_121" transform="translate(-29.72 -56.36)"/>
  <path d="m890.41,608.55l2.38,71.19l13.75,7.62a6.15,6.15 0 0 0 2.53,-2c16.87,-25.47 11.34,-99.22 11.34,-99.22l6.43,-47.62l-4.29,-24.71l-10.36,-1.1c4,-19.1 6.62,-37.64 2.27,-39.65c-3.87,-1.79 -6.41,-8.22 -8.06,-15.14l0,0l-7.4,50.4s0.62,4.54 0.84,9.22c0.17,3.48 0.11,7 -0.6,8.87c-1.67,4.29 -0.48,11.91 -0.48,11.91c-4.29,7.56 -6.43,21.57 -7.48,35.1c-1.41,17.99 -0.87,35.13 -0.87,35.13z" id="svg_122" opacity="0.1" transform="translate(-29.72 -56.36)"/>
  <path d="m873.91,410.46s12,1.49 15.8,6.49s13.81,5.69 13.81,5.69s11.43,3.81 11.19,4.76s3.33,2.39 10.48,4.29s19,8.81 19,10.48s18.81,20.23 18.81,22.14s5.72,9 5,21.66s-1.43,28.57 1.43,31.19s0,12.86 0,12.86a7,7 0 0 0 -0.15,7.62c2.38,4.29 -0.47,22.15 -0.47,22.15l0.23,18.57s-2.62,11.66 0.48,12.14s-0.48,5.71 -0.48,5.71s-2.62,9.53 0.72,13.81s4.28,22.62 4.28,22.62l51,74s0.72,13.57 -15.47,13.33s-16,3.1 -15.48,6.19s-4.52,6.43 -4.52,6.43s-6.43,3.33 -2.62,7.38s14.76,13.33 -3.33,19.52a43.16,43.16 0 0 1 -5.24,-9.52a107.72,107.72 0 0 1 -3.81,-12.85s-1.67,-18.1 -5,-20.48s-2.86,-13.81 -2.86,-13.81s4.76,-9.28 -1.9,-13.09s-103.43,-57.33 -103.43,-57.33l-2.38,-71.19s-1.67,-52.61 8.33,-70.23c0,0 -1.19,-7.62 0.48,-11.9s-0.24,-18.1 -0.24,-18.1l6.34,-50.53z" fill="#f74242" id="svg_123" transform="matrix(1 0 0 1 0 0)"/>
  <path d="m844.23,485.38s-23.93,-4.93 -30.36,-1.6s-19,6 -21,7.86s-6.67,0.48 -10.95,11.67s-4.77,22.61 -10.24,27.85s-8.33,8.81 -8.57,12.62s0.71,4.76 -1.43,6s-5.24,6.19 -4.29,8.1s49.61,43.75 49.61,43.75s2.39,16 4.53,20s-2.38,59.76 -7.14,63.57s32.14,3.46 32.14,3.46s1.66,-36.55 3.09,-38.46s-1,-41 -1,-41s-0.24,-33.33 2.86,-42.14s2.75,-38.06 2.75,-38.06s2.74,-17.57 6.07,-21.67s-6.07,-21.95 -6.07,-21.95z" id="svg_124" opacity="0.1" transform="translate(-29.72 -56.36)"/>
  <path d="m813.8,428.31s-23.94,-4.93 -30.37,-1.6s-19,5.95 -20.95,7.86s-6.66,0.47 -11,11.66s-4.76,22.62 -10.24,27.86s-8.33,8.81 -8.57,12.62s0.72,4.76 -1.42,5.95s-5.24,6.19 -4.29,8.09s49.52,43.81 49.52,43.81s2.38,16 4.52,20s-2.38,59.75 -7.14,63.56s32.14,3.46 32.14,3.46s1.67,-36.55 3.1,-38.45s-1,-41 -1,-41s-0.23,-33.33 2.86,-42.14s2.75,-38.1 2.75,-38.1s2.74,-17.57 6.06,-21.66s-5.97,-21.92 -5.97,-21.92z" fill="#f73d3d" id="svg_125" transform="matrix(1 0 0 1 0 0)"/>
  <path d="m811.28,408.14a48.18,48.18 0 0 1 2.76,16.08a54.63,54.63 0 0 0 62.65,-24.76a134.62,134.62 0 0 1 -2.32,-17.75s-73.32,-3.8 -63.09,26.43z" id="svg_126" opacity="0.1"/>
  <path d="m775.1,370.52a54.52,54.52 0 1 0 1.18,-11.33a54.53,54.53 0 0 0 -1.18,11.33z" fill="#f4cdcd" id="svg_127" transform="matrix(1 0 0 1 0 0)"/>
  <path d="m740.1,496.7l-13.09,4.05s1.19,4.76 -2.62,7.14s-3.33,7.15 -3.33,7.15s-1.43,5.23 -4.76,6.42s-5.48,9 -5.48,9l-10.95,12.62s-4.05,3.33 -3.33,5s-4.29,2.14 -4.29,2.14l2.62,42.42l22.62,4.29l14,-1.43l11.43,-4.29l10,-6l4.56,-11.57l20,-30.47l-37.38,-46.47z" fill="#f4a8a8" id="svg_128" transform="matrix(1 0 0 1 0 0)"/>
  <path d="m725.3,610s-29,-41.91 -50.71,-19.29s8.81,59.28 15.95,58.09s41.19,-3.09 41.19,-3.09l-6.43,-35.71z" fill="#ee8e9e" id="svg_129" transform="translate(-29.72 -56.36)"/>
  <rect fill="#30374e" height="69.8" id="svg_130" rx="12.62" ry="12.62" transform="matrix(1 0 0 1 0 0) matrix(0.832516 -0.804374 0.750917 0.891781 -132.855 -93.6756)" width="61.42" x="133.44" y="850.06"/>
  <rect fill="#7f0000" height="69.8" id="svg_131" opacity="0.1" rx="12.62" ry="12.62" transform="matrix(0.868256 -0.817694 0.783154 0.906549 -104.98 -134.144)" width="61.42" x="82.88" y="826.6"/>
  <circle cx="672.39" cy="560.74" fill="#f75151" id="svg_133" r="13.57" transform="matrix(1 0 0 1 0 0)"/>
  <path d="m682.78,568.41c-0.24,31.43 64.76,38.09 64.76,38.09l16.6,2.64l7.44,1.18l3.1,-30.68s-3.41,-0.51 -7.67,-1.5c-6.29,-1.47 -14.44,-4 -16.15,-7.55c-2.85,-5.95 -67.85,-33.6 -68.08,-2.18z" fill="#f4cdcd" id="svg_136" transform="matrix(1 0 0 1 0 0)"/>
  <path d="m776.28,359.19a6.47,6.47 0 0 1 4,1.78c1.84,1.95 1.94,5.41 4.33,6.61a4.92,4.92 0 0 0 2.84,0.33c6.33,-0.9 10,-8 16.07,-10c3.46,-1.12 7.27,-0.39 10.65,0.91a7.93,7.93 0 0 1 3.53,2.27c2,2.63 0.61,6.5 1.55,9.69c1.31,4.42 6.59,6.18 11.16,6.76s9.72,0.9 12.77,4.35c2.16,2.45 2.71,6 2.27,9.21a7.29,7.29 0 0 0 0,3.41c1.26,3.57 7.44,3 9.05,0.22c1.18,-2.05 0.82,-3.75 3.6,-4.32c1.88,-0.39 4.09,0.4 5.83,1a42.71,42.71 0 0 0 15.08,2.32a54.53,54.53 0 1 0 -102.73,-34.54z" id="svg_137" opacity="0.1"/>
  <path d="m845.42,393.07a7.29,7.29 0 0 1 0,-3.41c0.43,-3.23 -0.11,-6.77 -2.27,-9.21c-3,-3.45 -8.2,-3.78 -12.77,-4.35s-9.85,-2.33 -11.16,-6.75c-0.94,-3.19 0.48,-7.07 -1.55,-9.7a7.8,7.8 0 0 0 -3.52,-2.26c-3.39,-1.31 -7.2,-2 -10.66,-0.92c-6.07,2 -9.74,9.12 -16.07,10a4.92,4.92 0 0 1 -2.84,-0.33c-2.39,-1.2 -2.49,-4.66 -4.33,-6.6c-2.89,-3.06 -8.38,-1.09 -11.92,-3.36c-2.31,-1.49 -3.2,-4.38 -3.84,-7.05c-1.26,-5.18 -2.27,-10.61 -1.06,-15.79c2.07,-8.86 10,-14.93 15,-22.49c4.71,-7.05 7.35,-16 14.43,-20.64s16.17,-3.61 24.15,-1.24c3.74,1.11 7.44,2.49 11.31,3c6.44,0.79 12.9,-1 19.38,-1.18a41.62,41.62 0 0 1 25.59,7.77a14.16,14.16 0 0 1 4.18,4.23c1.29,2.28 1.46,5 1.85,7.58a38.75,38.75 0 0 0 5,13.93c2,3.35 4.51,6.39 6.32,9.85s2.87,7.55 1.71,11.27c-0.61,2 -1.82,3.73 -2.27,5.74c-1.06,4.65 2,9.09 4.09,13.38a25.1,25.1 0 0 1 2.78,12.69a16,16 0 0 1 -5.7,11.41c-3.37,2.64 -7.8,3.52 -12.07,3.66a42.78,42.78 0 0 1 -15.38,-2.31c-1.75,-0.6 -4,-1.39 -5.83,-1c-2.78,0.57 -2.42,2.27 -3.6,4.32c-1.52,2.8 -7.69,3.33 -8.95,-0.24z" fill="#540a2d" id="svg_138"/>
  <path d="m845.77,756.86l30.71,-24l48.34,-47.62s-6.5,-0.32 -16,-0.72c-1.73,1.76 -3.27,4 -3.37,6.5c-0.24,5.82 -13.07,0.41 -19.73,3.74s-39.28,45.07 -45,44.8s-10.23,-2.9 -12.62,1.15a2.46,2.46 0 0 1 -0.17,0.27a6.77,6.77 0 0 1 -3.63,2.15l21.47,13.73z" id="svg_139" opacity="0.1" transform="translate(-29.72 -56.36)"/>
  <path d="m753.15,698.83l15.43,49.26l2.42,7.74l7.35,-2l16.2,-4.45l72.16,-19.82s13.56,-0.18 26,-6.93c13.75,-7.48 29.26,-11.24 44.84,-9.78c9.54,0.89 20.15,-3.22 29,-19.48c0,0 20,-59 -30.48,-76s-52.88,9 -52.88,9s-0.26,0.14 -0.68,0.42c-2,1.25 -7.45,5.18 -7.65,10c-0.24,5.82 -13.07,0.4 -19.73,3.73s-39.28,45.08 -45,44.81s-10.23,-2.9 -12.62,1.15c0,0.09 -0.11,0.17 -0.17,0.26c-1.76,2.43 -7.06,3 -10.57,3.09c-1.91,0.06 -3.3,0 -3.3,0l-0.45,0.14l-3.74,1.04l-26.13,7.82z" fill="#484849" id="svg_140"/>
  <path d="m787.86,659.5l7.44,1.18l3.1,-30.68s-3.41,-0.51 -7.67,-1.5c1.13,4.25 -1.43,20.82 -2.87,31z" id="svg_141" opacity="0.1" transform="translate(-29.72 -56.36)"/>
  <path d="m952.82,459.64s22.14,-6.43 16.66,56.43s-46.42,102.57 -46.42,102.57s-47.14,20.71 -68.33,17.38s-36.66,-4 -36.66,-4a53.79,53.79 0 0 0 -21.43,-5.71c-11.91,-0.48 -36.9,-7.86 -37.38,-10.24s6.19,-37.38 3.33,-40c0,0 33.33,1.37 36.67,3.78s8.09,0.68 11.66,0s14.53,-10.21 36.19,-1.87c0,0 7.38,0.71 10.24,-1.19s7.44,-0.48 7.44,-0.48s4.49,-1.67 5.18,-2.67s6.42,0 6.42,0a2.54,2.54 0 0 0 3.58,-1.67a15.56,15.56 0 0 1 3.33,-5.23s6.43,-36.19 18.57,-49.76c0,0 3.57,-3.1 2.62,-6.91s19.79,-58.06 48.33,-50.43z" id="svg_142" opacity="0.1"/>
  <path d="m952.28,454.8s22.14,-6.43 16.67,56.43s-46.48,102.61 -46.48,102.61s-47.14,20.71 -68.33,17.38s-36.66,-4.05 -36.66,-4.05a53.72,53.72 0 0 0 -21.43,-5.71c-11.9,-0.48 -36.9,-7.86 -37.38,-10.24s6.19,-37.38 3.34,-40c0,0 33.33,1.37 36.66,3.78s8.1,0.68 11.67,0s14.52,-10.2 36.19,-1.87c0,0 7.38,0.71 10.23,-1.19s7.45,-0.48 7.45,-0.48s4.46,-1.67 5.17,-2.62s6.43,0 6.43,0a2.53,2.53 0 0 0 3.57,-1.66a15.54,15.54 0 0 1 3.33,-5.24s6.43,-36.19 18.57,-49.76c0,0 3.57,-3.1 2.62,-6.9s19.76,-58.1 48.38,-50.48z" fill="#f4a8a8" id="svg_143" transform="matrix(1 0 0 1 0 0)"/>
  <path d="m810,747.37l31.44,38c0.12,-0.11 0.2,-0.19 0.2,-0.22c0.24,-0.72 3.33,-8.81 2.62,-9.29s-6.19,-12.38 -17.14,-17.38c-6.69,-3 -11.07,-8.49 -13.46,-12.25l-3.66,1.14z" id="svg_144" opacity="0.1" transform="translate(-29.72 -56.36)"/>
  <path d="m810.43,813.21l3.44,2s8,-6.4 15.91,-12.84s15.63,-12.75 15.76,-13.11c0.23,-0.71 3.32,-8.81 2.61,-9.28c-0.37,-0.25 -2,-3.55 -5,-7.37c-21.32,-6 -7.75,8.83 -5.94,9.51c0,0 -26,-6 -27.38,22.31a33.36,33.36 0 0 0 0.6,8.78z" id="svg_145" opacity="0.1" transform="translate(-29.72 -56.36)"/>
  <path d="m804,769.83l4.53,2.62l46,1.19s9.86,6 16.26,7.82a13.93,13.93 0 0 0 2.31,0.51a103.27,103.27 0 0 0 12.8,0.24c3.52,-0.09 6.25,-0.24 6.25,-0.24s-2.18,-58 -3.82,-64c-0.78,-2.92 -4.63,-2.28 -8.43,-0.82a55.19,55.19 0 0 0 -8.23,4.17s-19.52,1.89 -22.62,3.57s-11.9,-1 -17.38,0s-15.23,-6.45 -15.23,-6.45c-26.67,-8.8 -11.67,7.62 -9.77,8.34c0,0 -25.94,-6 -27.37,22.31s24.7,20.74 24.7,20.74z" fill="#afafaf" id="svg_146"/>
  <path d="m873.43,746.45c0.5,12 9.85,26.89 15.42,34.76c3.52,-0.09 6.25,-0.24 6.25,-0.24s-2.18,-58 -3.82,-64c-0.78,-2.92 -4.63,-2.28 -8.43,-0.82c-4.57,8.6 -9.82,20.63 -9.42,30.3z" fill="#45444c" id="svg_147"/>
  <path d="m873.29,745.4c3.16,11.58 3.13,24.57 8.17,32.42a13.93,13.93 0 0 0 2.31,0.51a103.27,103.27 0 0 0 12.8,0.24c3.52,-0.09 6.25,-0.24 6.25,-0.24s-2.18,-58 -3.82,-64c-0.78,-2.92 -4.63,-2.28 -8.43,-0.82a55.19,55.19 0 0 0 -8.23,4.17s-13.09,12.9 -9.05,27.72z" id="svg_149" opacity="0.05"/>
  <path d="m736.77,686.94s22.82,7.41 42.16,33.73l-42.16,-33.73z" id="svg_150" opacity="0.1" transform="translate(-29.72 -56.36)"/>
  <g id="svg_151" opacity="0.1">
   <path d="m922.23,401.26a4.67,4.67 0 0 1 -0.14,0.5a16.15,16.15 0 0 1 -0.79,2a14.93,14.93 0 0 1 0.93,-2.5z" id="svg_152" transform="translate(-29.72 -56.36)"/>
   <path d="m793.11,389.71a21.46,21.46 0 0 1 1.77,-4.81c-0.12,0.41 -0.25,0.82 -0.35,1.24c-1.21,5.18 -0.2,10.61 1.06,15.79c0.65,2.67 1.53,5.56 3.84,7.05c3.55,2.27 9,0.29 11.92,3.35c1.84,1.95 1.94,5.41 4.34,6.61a4.91,4.91 0 0 0 2.84,0.33c6.32,-0.9 10,-8 16.07,-10c3.46,-1.12 7.26,-0.39 10.65,0.92a7.8,7.8 0 0 1 3.52,2.26c2,2.63 0.61,6.51 1.55,9.69c1.31,4.42 6.59,6.18 11.16,6.75s9.72,0.9 12.77,4.36c2.16,2.44 2.71,6 2.27,9.21a7.42,7.42 0 0 0 0,3.41c1.26,3.57 7.44,3 9,0.22c1.18,-2.05 0.83,-3.75 3.61,-4.32c1.87,-0.39 4.08,0.4 5.82,1a42.78,42.78 0 0 0 15.38,2.31c4.27,-0.15 8.71,-1 12.07,-3.66a14,14 0 0 0 3.7,-4.5a15.14,15.14 0 0 1 -5.1,8.08c-3.36,2.64 -7.79,3.52 -12.07,3.66a42.69,42.69 0 0 1 -15.37,-2.31c-1.75,-0.6 -4,-1.39 -5.83,-1c-2.78,0.57 -2.43,2.27 -3.6,4.32c-1.62,2.82 -7.79,3.35 -9.06,-0.22a7.42,7.42 0 0 1 0,-3.41c0.44,-3.23 -0.1,-6.77 -2.26,-9.21c-3.06,-3.45 -8.21,-3.78 -12.78,-4.35s-9.85,-2.33 -11.15,-6.75c-0.95,-3.19 0.48,-7.07 -1.55,-9.7a7.88,7.88 0 0 0 -3.53,-2.26c-3.39,-1.31 -7.19,-2 -10.65,-0.92c-6.08,2 -9.75,9.12 -16.07,10a4.91,4.91 0 0 1 -2.84,-0.33c-2.4,-1.2 -2.5,-4.66 -4.34,-6.6c-2.89,-3.06 -8.37,-1.09 -11.91,-3.36c-2.32,-1.49 -3.2,-4.38 -3.85,-7.05c-1.24,-5.19 -2.25,-10.62 -1.03,-15.8z" id="svg_153" transform="translate(-29.72 -56.36)"/>
  </g>
  <path d="m925.92,580.26c-4.36,5.89 -9.34,11.34 -13.2,17.57s-6.59,13.5 -5.78,20.78c4,-4.1 5.82,-9.76 8.34,-14.9c4.26,-8.7 10.64,-16.08 16,-24.08c1,-1.53 7.61,-10.35 4.28,-10.77c-2.74,-0.35 -8.15,9.39 -9.64,11.4z" id="svg_154" opacity="0.1" transform="translate(-29.72 -56.36)"/>
  <path d="m858.12,268.85c-1.18,-0.21 -1.59,-1.71 -0.88,-2.6c0.93,-1.38 2.93,-2.31 4.5,-1.44c0.03,-4.88 0.01,-9.77 0.02,-14.65c3.91,-0.77 7.82,-1.5 11.73,-2.27c-0.01,5.46 -0.02,10.91 -0.03,16.37c-0.61,1.65 -2.59,2.79 -4.31,2.28c-1.03,-0.31 -1.27,-1.63 -0.7,-2.44c0.78,-1.21 2.24,-2.04 3.7,-1.81c0.42,-0.04 1.03,0.63 0.86,-0.13c-0.01,-4.32 0.04,-8.63 -0.04,-12.95c-0.64,-0.24 -1.77,0.31 -2.59,0.35c-2.73,0.53 -5.46,1.03 -8.19,1.6c0.08,4.78 0.04,9.57 0.03,14.35c0.14,1.09 -0.46,2.12 -1.37,2.69c-0.79,0.57 -1.77,0.78 -2.73,0.66z" fill="#f75151" id="svg_165" transform="matrix(1 0 0 1 0 0)"/>
  <path d="m887.33,214.15c-1.52,-0.27 -2.04,-2.19 -1.14,-3.34c1.2,-1.78 3.77,-2.98 5.79,-1.85c0.04,-6.28 0.02,-12.56 0.02,-18.84c5.02,-0.99 10.05,-1.93 15.08,-2.92c-0.01,7.02 -0.02,14.03 -0.03,21.05c-0.79,2.12 -3.33,3.59 -5.54,2.94c-1.32,-0.39 -1.63,-2.1 -0.9,-3.14c1.01,-1.56 2.88,-2.62 4.76,-2.33c0.54,-0.05 1.33,0.81 1.1,-0.17c-0.02,-5.55 0.05,-11.1 -0.05,-16.65c-0.82,-0.3 -2.28,0.4 -3.33,0.45c-3.51,0.68 -7.02,1.33 -10.53,2.05c0.11,6.15 0.06,12.3 0.04,18.45c0.19,1.4 -0.59,2.73 -1.76,3.46c-1.02,0.74 -2.27,1 -3.51,0.84z" fill="#f75151" id="svg_166"/>
  <path d="m933.04,279.93c-3.37,-0.61 -4.54,-4.87 -2.53,-7.43c2.67,-3.95 8.38,-6.61 12.86,-4.12c0.09,-13.96 0.04,-27.91 0.05,-41.87c11.16,-2.21 22.34,-4.29 33.5,-6.48c-0.02,15.59 -0.05,31.18 -0.07,46.77c-1.75,4.72 -7.4,7.99 -12.32,6.52c-2.93,-0.88 -3.63,-4.66 -2,-6.97c2.23,-3.46 6.39,-5.83 10.57,-5.18c1.19,-0.12 2.95,1.81 2.45,-0.37c-0.04,-12.33 0.1,-24.67 -0.11,-37c-1.82,-0.68 -5.06,0.88 -7.39,1.01c-7.8,1.52 -15.61,2.95 -23.39,4.56c0.23,13.66 0.13,27.34 0.09,41c0.41,3.12 -1.31,6.06 -3.92,7.68c-2.26,1.64 -5.04,2.23 -7.79,1.88z" fill="#f75151" id="svg_167"/>
  <path d="m1059.07,553.36c1.61,8.62 21.88,30.72 21.88,30.72s11,-27.91 9.35,-36.54a15.88,15.88 0 0 0 -31.23,5.82z" fill="#ffaad4" id="svg_168" opacity="0.25" transform="matrix(1 0 0 1 0 0)"/>
  <path d="m1104.07,542.36c1.61,8.62 21.88,30.72 21.88,30.72s11,-27.91 9.35,-36.54a15.88,15.88 0 0 0 -31.23,5.82z" fill="#ffaad4" id="svg_169" opacity="0.25" transform="rotate(45.1669 1119.64 548.33)"/>
  <path d="m1066.93,581.41c-3.34,8.11 1.66,37.68 1.66,37.68s24.37,-17.48 27.71,-25.59a15.88,15.88 0 0 0 -29.37,-12.09z" fill="#7f007f" id="svg_170" opacity="0.25" transform="rotate(68.8243 1081.64 595.33)"/>
 </g>
</svg>